<svg width="16" height="16" viewBox="0 0 16 16" fill="none" xmlns="http://www.w3.org/2000/svg">
<path fill-rule="evenodd" clip-rule="evenodd" d="M2 4C2 3.44772 2.44772 3 3 3H6C6.55228 3 7 3.44772 7 4C7 4.55228 6.55228 5 6 5H3C2.44772 5 2 4.55228 2 4Z" fill="currentColor"/>
<path fill-rule="evenodd" clip-rule="evenodd" d="M2 8C2 7.44772 2.44772 7 3 7H9C9.55228 7 10 7.44772 10 8C10 8.55228 9.55228 9 9 9H3C2.44772 9 2 8.55228 2 8Z" fill="currentColor"/>
<path fill-rule="evenodd" clip-rule="evenodd" d="M2 12C2 11.4477 2.44772 11 3 11H13C13.5523 11 14 11.4477 14 12C14 12.5523 13.5523 13 13 13H3C2.44772 13 2 12.5523 2 12Z" fill="currentColor"/>
</svg>
