<svg width="16" height="16" viewBox="0 0 16 16" fill="none" xmlns="http://www.w3.org/2000/svg">
<path fill-rule="evenodd" clip-rule="evenodd" d="M2 12C2 12.5523 2.44772 13 3 13H6C6.55228 13 7 12.5523 7 12C7 11.4477 6.55228 11 6 11H3C2.44772 11 2 11.4477 2 12Z" fill="currentColor"/>
<path fill-rule="evenodd" clip-rule="evenodd" d="M2 8C2 8.55228 2.44772 9 3 9H9C9.55228 9 10 8.55228 10 8C10 7.44772 9.55228 7 9 7H3C2.44772 7 2 7.44772 2 8Z" fill="currentColor"/>
<path fill-rule="evenodd" clip-rule="evenodd" d="M2 4C2 4.55228 2.44772 5 3 5H13C13.5523 5 14 4.55228 14 4C14 3.44772 13.5523 3 13 3H3C2.44772 3 2 3.44772 2 4Z" fill="currentColor"/>
</svg>
